<?xml version="1.0" encoding="utf-8"?>
<!-- Generator: Adobe Illustrator 16.0.0, SVG Export Plug-In . SVG Version: 6.00 Build 0)  -->
<!DOCTYPE svg PUBLIC "-//W3C//DTD SVG 1.1//EN" "http://www.w3.org/Graphics/SVG/1.1/DTD/svg11.dtd">
<svg version="1.1" id="Layer_1" xmlns="http://www.w3.org/2000/svg" xmlns:xlink="http://www.w3.org/1999/xlink" x="0px" y="0px"
	 width="44px" height="44px" viewBox="0 0 1024 1024" enable-background="new 0 0 1024 1024" xml:space="preserve">
<rect fill="none" width="1024" height="1024"/>
<path fill-rule="evenodd" clip-rule="evenodd" d="M512,0C229.221,0,0,229.25,0,512.008C0,794.767,229.221,1024,512,1024
	c282.763,0,512-229.233,512-511.992C1024,229.25,794.763,0,512,0z M932.654,503.489c0-232.102-188.35-420.263-420.454-420.263
	c-232.105,0-421.427,188.161-421.427,420.263C90.773,633.326,157,749.385,241,826.468V623.103C241,606.376,262.168,586,278.912,586
	h104.199c28.999,33,76.675,67.811,130.707,67.811c54.033,0,101.709-34.811,130.708-67.811h98.792
	C760.063,586,778,606.376,778,623.103v206.33C879,752.366,932.654,635.014,932.654,503.489z M513.818,620.269
	c-88.438,0-160.115-71.677-160.115-160.113c0-88.42,71.678-160.113,160.115-160.113c88.422,0,160.1,71.693,160.1,160.113
	C673.918,548.592,602.24,620.269,513.818,620.269z"/>
</svg>
