<svg width="21" height="15" viewBox="0 0 21 15" fill="none" xmlns="http://www.w3.org/2000/svg">
<path d="M21 7.5L17.1818 3.75V6.5625H8.59091V8.4375H17.1818V11.25M0 13.125V1.875C0 0.834375 0.859091 0 1.90909 0H13.3636C13.87 0 14.3555 0.197544 14.7136 0.549175C15.0716 0.900805 15.2727 1.37772 15.2727 1.875V4.6875H13.3636V1.875H1.90909V13.125H13.3636V10.3125H15.2727V13.125C15.2727 13.6223 15.0716 14.0992 14.7136 14.4508C14.3555 14.8025 13.87 15 13.3636 15H1.90909C1.40277 15 0.917184 14.8025 0.55916 14.4508C0.201136 14.0992 0 13.6223 0 13.125Z" fill="#010000"/>
</svg>
